<?xml version="1.0" encoding="UTF-8"?>
<svg xmlns="http://www.w3.org/2000/svg" xmlns:xlink="http://www.w3.org/1999/xlink" width="51px" height="26px" viewBox="0 0 51 26" version="1.1">
<g id="surface1">
<path style=" stroke:none;fill-rule:nonzero;fill:rgb(19.607843%,46.27451%,67.843139%);fill-opacity:1;" d="M 51 25.980469 C 51 25.980469 50.039062 25.945312 46.636719 25.945312 C 46.636719 25.953125 46.636719 25.972656 46.636719 25.980469 L 42.035156 25.980469 C 42.035156 16.699219 34.59375 9.179688 25.417969 9.179688 C 16.238281 9.179688 8.800781 16.699219 8.800781 25.980469 L 4.207031 25.980469 C 4.207031 25.851562 4.214844 25.71875 4.214844 25.597656 L 4.1875 25.90625 L 0.628906 24.839844 L 0 21.621094 C 0 21.621094 0.925781 21.722656 4.175781 22.296875 L 1.332031 19.957031 L 1.339844 16.679688 C 1.339844 16.679688 2.226562 16.972656 5.304688 18.167969 L 2.96875 15.304688 L 3.613281 12.097656 C 3.613281 12.097656 4.425781 12.554688 7.210938 14.34375 L 5.472656 11.078125 L 6.730469 8.054688 C 6.730469 8.054688 7.441406 8.664062 9.816406 10.972656 L 8.753906 7.417969 L 10.574219 4.707031 C 10.574219 4.707031 11.144531 5.445312 13.03125 8.1875 L 12.679688 4.492188 L 14.992188 2.1875 C 14.992188 2.1875 15.417969 3.03125 16.730469 6.089844 L 17.097656 2.40625 L 19.816406 0.609375 C 19.816406 0.609375 20.066406 1.515625 20.757812 4.78125 L 21.839844 1.226562 L 24.851562 0.0078125 C 24.851562 0.0078125 24.917969 0.945312 24.972656 4.285156 L 26.71875 1.027344 L 29.910156 0.429688 C 29.910156 0.429688 29.796875 1.367188 29.1875 4.648438 L 31.535156 1.804688 L 34.78125 1.851562 C 34.78125 1.851562 34.484375 2.75 33.253906 5.839844 L 36.109375 3.519531 L 39.28125 4.210938 C 39.28125 4.210938 38.820312 5.023438 37.007812 7.820312 L 40.261719 6.109375 L 43.234375 7.417969 C 43.234375 7.417969 42.625 8.128906 40.304688 10.507812 L 43.828125 9.476562 L 46.488281 11.347656 C 46.488281 11.347656 45.75 11.917969 43.023438 13.789062 L 46.683594 13.480469 L 48.929688 15.847656 C 48.929688 15.847656 48.097656 16.261719 45.046875 17.550781 L 48.6875 17.972656 L 50.425781 20.742188 C 50.425781 20.742188 49.511719 20.984375 46.238281 21.660156 L 49.828125 22.828125 Z M 4.492188 22.351562 L 4.492188 22.5 C 4.511719 22.386719 4.527344 22.277344 4.546875 22.15625 Z M 5.601562 18.28125 L 5.589844 18.367188 C 5.621094 18.28125 5.65625 18.195312 5.683594 18.113281 Z M 7.476562 14.511719 C 7.476562 14.511719 7.488281 14.511719 7.488281 14.519531 L 7.457031 14.578125 C 7.496094 14.511719 7.53125 14.453125 7.570312 14.390625 Z M 10.046875 11.191406 C 10.046875 11.191406 10.054688 11.199219 10.046875 11.191406 C 10.074219 11.179688 10.09375 11.152344 10.109375 11.132812 Z M 25.417969 11.648438 C 33.246094 11.648438 39.59375 18.066406 39.59375 25.992188 L 11.238281 25.992188 C 11.238281 18.066406 17.589844 11.648438 25.417969 11.648438 Z M 25.417969 11.648438 "/>
</g>
</svg>
